/* XPM */
static char * logo_xpm[] = {
"32 32 47 1",
" 	c None",
".	c #609C60",
"+	c #64A464",
"@	c #66A766",
"#	c #66A866",
"$	c #63A263",
"%	c #6CB36C",
"&	c #6CB56C",
"*	c #6DB66D",
"=	c #62A062",
"-	c #6BB26B",
";	c #6EB76E",
">	c #69AD69",
",	c #69AE69",
"'	c #6DB76D",
")	c #71BA71",
"!	c #75BE75",
"~	c #7BC47B",
"{	c #6FB86F",
"]	c #8AD38A",
"^	c #90D990",
"/	c #93DC93",
"(	c #94DD94",
"_	c #70B970",
":	c #8ED78E",
"<	c #92DB92",
"[	c #8DD68D",
"}	c #7FC87F",
"|	c #76BF76",
"1	c #7EC77E",
"2	c #8FD88F",
"3	c #8BD48B",
"4	c #79C279",
"5	c #89D289",
"6	c #81CA81",
"7	c #6BB46B",
"8	c #77C077",
"9	c #72BB72",
"0	c #73BC73",
"a	c #8CD58C",
"b	c #7DC67D",
"c	c #91DA91",
"d	c #83CC83",
"e	c #74BD74",
"f	c #88D188",
"g	c #95DE95",
"h	c #85CE85",
"            .+@##@+.            ",
"         $%&********&%$         ",
"       =-;************;-=       ",
"      >******************>      ",
"     ,'******************',     ",
"    ,**********************,    ",
"   >'**********&&**********'>   ",
"  =**********)!~~!)**********=  ",
"  -********{]^/((/^]{********-  ",
" $;*******_:<[}||1[<:_*******;$ ",
" %*******;2/3******3/2;*******% ",
" &*******4<2********2<4*******& ",
".*******&5<6********6<5&*******.",
"+*******7//8********8//7*******+",
"@*******_(/9********9/(_*******@",
"#*******0(/)********)/(0*******#",
"#*******)(/9********9/()*******#",
"@*******&(/|********|/(&*******@",
"+*******7a<}********}<37*******+",
".********b<a********a<b********.",
" &*******_c/d&****&d/c{*******& ",
" %********e<<5_;;_f<<0********% ",
" $;********e[g/22//30********;$ ",
"  -*********78h33c<!&********-  ",
"  =***********&&&8(<8********=  ",
"   >'************&~^^9*****'>   ",
"    ,**************{{;*****,    ",
"     ,'******************',     ",
"      >******************>      ",
"       =-;************;-=       ",
"         $%&********&%$         ",
"            .+@##@+.            "};
