/* XPM */
static char * logo_xpm[] = {
"80 80 72 1",
" 	c None",
".	c #4D754D",
"+	c #578957",
"@	c #588B58",
"#	c #5B925B",
"$	c #5D955D",
"%	c #578A57",
"&	c #5C945C",
"*	c #5F9A5F",
"=	c #65A665",
"-	c #6FBA6F",
";	c #6EB96E",
">	c #5E975E",
",	c #65A565",
"'	c #66A866",
")	c #6CB36C",
"!	c #6EB86E",
"~	c #6EB76E",
"{	c #6DB66D",
"]	c #4B724B",
"^	c #6CB46C",
"/	c #609C60",
"(	c #5D965D",
"_	c #6AB16A",
":	c #67AB67",
"<	c #4E794E",
"[	c #6BB16B",
"}	c #5C935C",
"|	c #6DB76D",
"1	c #62A162",
"2	c #63A363",
"3	c #6CB56C",
"4	c #6BB46B",
"5	c #6AB36A",
"6	c #73BC73",
"7	c #76BF76",
"8	c #77C077",
"9	c #72BB72",
"0	c #81CA81",
"a	c #8BD48B",
"b	c #90D990",
"c	c #91DA91",
"d	c #8FD88F",
"e	c #8CD58C",
"f	c #80C980",
"g	c #75BE75",
"h	c #89D289",
"i	c #94DD94",
"j	c #93DC93",
"k	c #92DB92",
"l	c #85CE85",
"m	c #79C279",
"n	c #8ED78E",
"o	c #7CC57C",
"p	c #6FB86F",
"q	c #7BC47B",
"r	c #8DD68D",
"s	c #78C178",
"t	c #86CF86",
"u	c #70B970",
"v	c #74BD74",
"w	c #82CB82",
"x	c #87D087",
"y	c #83CC83",
"z	c #8AD38A",
"A	c #71BA71",
"B	c #7AC37A",
"C	c #7DC67D",
"D	c #84CD84",
"E	c #7EC77E",
"F	c #88D188",
"G	c #95DE95",
"                                  .+@#$$$$#@+.                                  ",
"                             %&*=-;;;;;;;;;;;;-=*&%                             ",
"                          >,')!!~{{{{{{{{{{{{{{~!!)',>                          ",
"                       ]*^^{{{{{{{{{{{{{{{{{{{{{{{{{{^^*]                       ",
"                      /{~{{{{{{{{{{{{{{{{{{{{{{{{{{{{{{~{/                      ",
"                    (_!{{{{{{{{{{{{{{{{{{{{{{{{{{{{{{{{{{!_(                    ",
"                  *:!{{{{{{{{{{{{{{{{{{{{{{{{{{{{{{{{{{{{{{!:*                  ",
"                 '{{{{{{{{{{{{{{{{{{{{{{{{{{{{{{{{{{{{{{{{{{{{'                 ",
"               <[~{{{{{{{{{{{{{{{{{{{{{{{{{{{{{{{{{{{{{{{{{{{{~[<               ",
"              }{|{{{{{{{{{{{{{{{{{{{{{{{{{{{{{{{{{{{{{{{{{{{{{{|{}              ",
"             1^{{{{{{{{{{{{{{{{{{{{{{{{{{{{{{{{{{{{{{{{{{{{{{{{{{^1             ",
"            2{{{{{{{{{{{{{{{{{{{{{{{{{{{{{{{{{{{{{{{{{{{{{{{{{{{{{{2            ",
"           2!{{{{{{{{{{{{{{{{{{{{{{{{{{{{{{{{{{{{{{{{{{{{{{{{{{{{{{!2           ",
"          1{{{{{{{{{{{{{{{{{{{{{{{{{{{{{{{{{{{{{{{{{{{{{{{{{{{{{{{{{{1          ",
"         }^{{{{{{{{{{{{{{{{{{{{{{{{{{{{{{{{{{{{{{{{{{{{{{{{{{{{{{{{{{^}         ",
"        <{{{{{{{{{{{{{{{{{{{{{{{{{{{{{{{{{{{{{{{{{{{{{{{{{{{{{{{{{{{{{{<        ",
"        [|{{{{{{{{{{{{{{{{{{{{{{{{{{{{{{{{{{{{{{{{{{{{{{{{{{{{{{{{{{{{|[        ",
"       '~{{{{{{{{{{{{{{{{{{{{{{{{{{{{333333{{{{{{{{{{{{{{{{{{{{{{{{{{{{~'       ",
"      *{{{{{{{{{{{{{{{{{{{{{{{{{{345~678876~543{{{{{{{{{{{{{{{{{{{{{{{{{{*      ",
"      :{{{{{{{{{{{{{{{{{{{{{{{{{390abbbccbbdef93{{{{{{{{{{{{{{{{{{{{{{{{{:      ",
"     (!{{{{{{{{{{{{{{{{{{{{{{{~ghijkkkkkkkkkkjihg~{{{{{{{{{{{{{{{{{{{{{{{!(     ",
"     _{{{{{{{{{{{{{{{{{{{{{{36lijkkkkkkkkkkkkkkjil63{{{{{{{{{{{{{{{{{{{{{{_     ",
"    /!{{{{{{{{{{{{{{{{{{{{{4mnjkkkkjiicnnciijkkkkjnm4{{{{{{{{{{{{{{{{{{{{{!/    ",
"   ]{{{{{{{{{{{{{{{{{{{{{{4ockkkkkieo6pppp9qaikkkkkko4{{{{{{{{{{{{{{{{{{{{{{]   ",
"   *~{{{{{{{{{{{{{{{{{{{{3mkkkkkkrs33{{{{{{338ekkkkkkm3{{{{{{{{{{{{{{{{{{{{~*   ",
"   ^{{{{{{{{{{{{{{{{{{{{{6nkkkkjtu3{{{{{{{{{{3pljkkkknv{{{{{{{{{{{{{{{{{{{{{^   ",
"  >^{{{{{{{{{{{{{{{{{{{{~tjkkkiw~3{{{{{{{{{{{{3~0ikkkjx~{{{{{{{{{{{{{{{{{{{{^>  ",
"  ,{{{{{{{{{{{{{{{{{{{{{sjkkkjxp{{{{{{{{{{{{{{{{pxjkkkis{{{{{{{{{{{{{{{{{{{{{,  ",
"  '{{{{{{{{{{{{{{{{{{{{3nkkkkdg{{{{{{{{{{{{{{{{{{gdkkkkn3{{{{{{{{{{{{{{{{{{{{'  ",
" %){{{{{{{{{{{{{{{{{{{3mikkkky3{{{{{{{{{{{{{{{{{{3ykkkkim3{{{{{{{{{{{{{{{{{{{)% ",
" &!{{{{{{{{{{{{{{{{{{{4zkkkkbv3{{{{{{{{{{{{{{{{{{3vckkkkz4{{{{{{{{{{{{{{{{{{{!& ",
" *!{{{{{{{{{{{{{{{{{{{Abkkkka4{{{{{{{{{{{{{{{{{{{{4zkkkkbA{{{{{{{{{{{{{{{{{{{!* ",
" =~{{{{{{{{{{{{{{{{{{3BckkkjC3{{{{{{{{{{{{{{{{{{{{3CjkkkcB3{{{{{{{{{{{{{{{{{{~= ",
" -{{{{{{{{{{{{{{{{{{{3wkkkki63{{{{{{{{{{{{{{{{{{{{{9ikkkkw3{{{{{{{{{{{{{{{{{{{- ",
".;{{{{{{{{{{{{{{{{{{{{tkkkkk3{{{{{{{{{{{{{{{{{{{{{{3kkkkkt{{{{{{{{{{{{{{{{{{{{;.",
"+;{{{{{{{{{{{{{{{{{{{phkkkje3{{{{{{{{{{{{{{{{{{{{{{3ejkkkhp{{{{{{{{{{{{{{{{{{{;+",
"@;{{{{{{{{{{{{{{{{{{{Azkkkjx3{{{{{{{{{{{{{{{{{{{{{{3xjkkkzA{{{{{{{{{{{{{{{{{{{;@",
"#;{{{{{{{{{{{{{{{{{{{9ekkkjy3{{{{{{{{{{{{{{{{{{{{{{3yjkkke9{{{{{{{{{{{{{{{{{{{;#",
"$;{{{{{{{{{{{{{{{{{{{9ekkkjw3{{{{{{{{{{{{{{{{{{{{{{3wjkkke9{{{{{{{{{{{{{{{{{{{;$",
"$;{{{{{{{{{{{{{{{{{{{9ekkkjw3{{{{{{{{{{{{{{{{{{{{{{3wjkkke9{{{{{{{{{{{{{{{{{{{;$",
"$;{{{{{{{{{{{{{{{{{{{9ekkkjD3{{{{{{{{{{{{{{{{{{{{{{3Djkkke9{{{{{{{{{{{{{{{{{{{;$",
"$;{{{{{{{{{{{{{{{{{{{Aakkkjx3{{{{{{{{{{{{{{{{{{{{{{3xjkkkaA{{{{{{{{{{{{{{{{{{{;$",
"#;{{{{{{{{{{{{{{{{{{{phkkkja3{{{{{{{{{{{{{{{{{{{{{{3ajkkkhp{{{{{{{{{{{{{{{{{{{;#",
"@;{{{{{{{{{{{{{{{{{{{{xkkkkk4{{{{{{{{{{{{{{{{{{{{{{4kkkkkt3{{{{{{{{{{{{{{{{{{{;@",
"+;{{{{{{{{{{{{{{{{{{{3wkkkkj93{{{{{{{{{{{{{{{{{{{{39jkkkkw3{{{{{{{{{{{{{{{{{{{;+",
".;{{{{{{{{{{{{{{{{{{{3qckkkjE3{{{{{{{{{{{{{{{{{{{{3CjkkkcB3{{{{{{{{{{{{{{{{{{{;.",
" -{{{{{{{{{{{{{{{{{{{{Abkkkka4{{{{{{{{{{{{{{{{{{{{4akkkkbA{{{{{{{{{{{{{{{{{{{{- ",
" =~{{{{{{{{{{{{{{{{{{{4zkkkkbg3{{{{{{{{{{{{{{{{{{3gbkkkkF4{{{{{{{{{{{{{{{{{{{~= ",
" *!{{{{{{{{{{{{{{{{{{{3Bjkkkky3{{{{{{{{{{{{{{{{{{3ykkkkjm3{{{{{{{{{{{{{{{{{{{!* ",
" &!{{{{{{{{{{{{{{{{{{{{3rjkkkdg{{{{{{{{{{{{{{{{{{gnkkkjr3{{{{{{{{{{{{{{{{{{{{!& ",
" %){{{{{{{{{{{{{{{{{{{{3sikkkjF~{{{{{{{{{{{{{{{{~Fjkkki8{{{{{{{{{{{{{{{{{{{{{)% ",
"  '{{{{{{{{{{{{{{{{{{{{{~tjkkkjl3{{{{{{{{{{{{{{4Djkkkjl~{{{{{{{{{{{{{{{{{{{{{'  ",
"  ,{{{{{{{{{{{{{{{{{{{{{{vnkkkkjt~{{{{{{{{{{{{~ljkkkkr6{{{{{{{{{{{{{{{{{{{{{{,  ",
"  >^{{{{{{{{{{{{{{{{{{{{{3Bckkkkjasp433{{334pszjkkkkbm3{{{{{{{{{{{{{{{{{{{{{^>  ",
"   ^{{{{{{{{{{{{{{{{{{{{{{3Bjkkkkjcz0mv99vm0hcjkkkjcm3{{{{{{{{{{{{{{{{{{{{{{^   ",
"   *~{{{{{{{{{{{{{{{{{{{{{{{7bjkkkkkkcbbbbckkkkkkjnv{{{{{{{{{{{{{{{{{{{{{{{~*   ",
"   ]{{{{{{{{{{{{{{{{{{{{{{{{{9hckkkkkkkkkkkkkkkkcxu{{{{{{{{{{{{{{{{{{{{{{{{{]   ",
"    /!{{{{{{{{{{{{{{{{{{{{{{{3{qhdjjjkkkkkkkkkje84{{{{{{{{{{{{{{{{{{{{{{{{!/    ",
"     _{{{{{{{{{{{{{{{{{{{{{{{{{3~golabjGijjkkkkr93{{{{{{{{{{{{{{{{{{{{{{{{_     ",
"     (!{{{{{{{{{{{{{{{{{{{{{{{{{{{{~puuuupEkkkkkn93{{{{{{{{{{{{{{{{{{{{{{!(     ",
"      :{{{{{{{{{{{{{{{{{{{{{{{{{{{{{{{{{{{40kkkkkaA{{{{{{{{{{{{{{{{{{{{{{:      ",
"      *{{{{{{{{{{{{{{{{{{{{{{{{{{{{{{{{{{{{40kkkkjFu{{{{{{{{{{{{{{{{{{{{{*      ",
"       '~{{{{{{{{{{{{{{{{{{{{{{{{{{{{{{{{{{{{0kkkkjF~{{{{{{{{{{{{{{{{{{~'       ",
"        [|{{{{{{{{{{{{{{{{{{{{{{{{{{{{{{{{{{{~lkkkkkh3{{{{{{{{{{{{{{{{|[        ",
"        <{{{{{{{{{{{{{{{{{{{{{{{{{{{{{{{{{{{{{3hcccccy{{{{{{{{{{{{{{{{{<        ",
"         }^{{{{{{{{{{{{{{{{{{{{{{{{{{{{{{{{{{{{~msssssu{{{{{{{{{{{{{{^}         ",
"          1{{{{{{{{{{{{{{{{{{{{{{{{{{{{{{{{{{{{{333333{{{{{{{{{{{{{{{1          ",
"           2!{{{{{{{{{{{{{{{{{{{{{{{{{{{{{{{{{{{{{{{{{{{{{{{{{{{{{{!2           ",
"            2{{{{{{{{{{{{{{{{{{{{{{{{{{{{{{{{{{{{{{{{{{{{{{{{{{{{{{2            ",
"             1^{{{{{{{{{{{{{{{{{{{{{{{{{{{{{{{{{{{{{{{{{{{{{{{{{{^1             ",
"              }{|{{{{{{{{{{{{{{{{{{{{{{{{{{{{{{{{{{{{{{{{{{{{{{|{}              ",
"               <[~{{{{{{{{{{{{{{{{{{{{{{{{{{{{{{{{{{{{{{{{{{{{~[<               ",
"                 '{{{{{{{{{{{{{{{{{{{{{{{{{{{{{{{{{{{{{{{{{{{{'                 ",
"                  *:!{{{{{{{{{{{{{{{{{{{{{{{{{{{{{{{{{{{{{{!:*                  ",
"                    (_!{{{{{{{{{{{{{{{{{{{{{{{{{{{{{{{{{{!_(                    ",
"                      /{~{{{{{{{{{{{{{{{{{{{{{{{{{{{{{{~{/                      ",
"                       ]*^^{{{{{{{{{{{{{{{{{{{{{{{{{{^^*]                       ",
"                          >,')!!~{{{{{{{{{{{{{{~!!)',>                          ",
"                             %&*=-;;;;;;;;;;;;-=*&%                             ",
"                                  .+@#$$$$#@+.                                  "};
